<?xml version="1.0" encoding="UTF-8" standalone="no"?>
<!-- Created with Inkscape (http://www.inkscape.org/) -->

<svg
   xmlns:dc="http://purl.org/dc/elements/1.1/"
   xmlns:cc="http://creativecommons.org/ns#"
   xmlns:rdf="http://www.w3.org/1999/02/22-rdf-syntax-ns#"
   xmlns:svg="http://www.w3.org/2000/svg"
   xmlns="http://www.w3.org/2000/svg"
   xmlns:sodipodi="http://sodipodi.sourceforge.net/DTD/sodipodi-0.dtd"
   xmlns:inkscape="http://www.inkscape.org/namespaces/inkscape"
   width="700mm"
   height="700mm"
   viewBox="0 0 700 700"
   version="1.1"
   id="svg12223"
   inkscape:version="0.92.4 (5da689c313, 2019-01-14)"
   sodipodi:docname="fgv-logo.svg"
   inkscape:export-filename="G:\Users\suitedoalex\sites\fgv-logo-0.png"
   inkscape:export-xdpi="148.6263"
   inkscape:export-ydpi="148.6263">
  <defs
     id="defs12217">
    <clipPath
       clipPathUnits="userSpaceOnUse"
       id="clipPath11242">
      <path
         d="M 0,0 H 1020.472 V 722.835 H 0 Z"
         id="path11240"
         inkscape:connector-curvature="0" />
    </clipPath>
  </defs>
  <sodipodi:namedview
     id="base"
     pagecolor="#ffffff"
     bordercolor="#666666"
     borderopacity="1.0"
     inkscape:pageopacity="0.0"
     inkscape:pageshadow="2"
     inkscape:zoom="0.24748738"
     inkscape:cx="1355.5755"
     inkscape:cy="1370.1544"
     inkscape:document-units="mm"
     inkscape:current-layer="layer1"
     showgrid="false"
     inkscape:window-width="1600"
     inkscape:window-height="837"
     inkscape:window-x="-8"
     inkscape:window-y="-8"
     inkscape:window-maximized="1" />
  <metadata
     id="metadata12220">
    <rdf:RDF>
      <cc:Work
         rdf:about="">
        <dc:format>image/svg+xml</dc:format>
        <dc:type
           rdf:resource="http://purl.org/dc/dcmitype/StillImage" />
        <dc:title></dc:title>
      </cc:Work>
    </rdf:RDF>
  </metadata>
  <g
     inkscape:label="Layer 1"
     inkscape:groupmode="layer"
     id="layer1"
     transform="translate(0,403)">
    <g
       id="g11232"
       transform="matrix(5.4552923,0,0,-5.4552923,341.77615,-101.80741)"
       inkscape:export-filename="G:\Users\suitedoalex\sites\fgv-logo-4.png"
       inkscape:export-xdpi="18.040817"
       inkscape:export-ydpi="18.040817">
      <path
         d="M 0,0 H 14.313 V -4.347 H 4.959 v -3.042 h 8.46 v -4.114 h -8.46 v -6.391 H 0 Z"
         style="fill:#003e7e;fill-opacity:1;fill-rule:nonzero;stroke:none"
         id="path11234"
         inkscape:connector-curvature="0" />
    </g>
    <g
       transform="matrix(5.4552923,0,0,-5.4552923,-209.93293,3561.1715)"
       id="g11236"
       inkscape:export-filename="G:\Users\suitedoalex\sites\fgv-logo-4.png"
       inkscape:export-xdpi="18.040817"
       inkscape:export-ydpi="18.040817">
      <g
         id="g11238"
         clip-path="url(#clipPath11242)">
        <g
           id="g11244"
           transform="translate(117.3428,662.4564)">
          <path
             d="m 0,0 v 0.052 c 0,5.212 4.089,9.303 9.635,9.303 3.144,0 5.368,-0.971 7.261,-2.606 L 13.981,3.247 C 12.702,4.32 11.424,4.933 9.662,4.933 7.079,4.933 5.086,2.761 5.086,0.024 v -0.05 c 0,-2.888 2.019,-4.956 4.857,-4.956 1.2,0 2.121,0.255 2.862,0.739 V -2.07 H 9.278 v 3.629 h 8.23 v -8.05 C 15.617,-8.051 12.984,-9.253 9.737,-9.253 4.165,-9.253 0,-5.419 0,0"
             style="fill:#003e7e;fill-opacity:1;fill-rule:nonzero;stroke:none"
             id="path11246"
             inkscape:connector-curvature="0" />
        </g>
      </g>
    </g>
    <g
       id="g11248"
       transform="matrix(5.4552923,0,0,-5.4552923,527.27303,-101.80741)"
       inkscape:export-filename="G:\Users\suitedoalex\sites\fgv-logo-4.png"
       inkscape:export-xdpi="18.040817"
       inkscape:export-ydpi="18.040817">
      <path
         d="M 0,0 H 5.546 L 9.61,-11.323 13.675,0 h 5.446 l -7.26,-18.021 H 7.259 Z"
         style="fill:#003e7e;fill-opacity:1;fill-rule:nonzero;stroke:none"
         id="path11250"
         inkscape:connector-curvature="0" />
    </g>
    <g
       id="g11252"
       transform="matrix(5.4552923,0,0,-5.4552923,68.416321,-101.83788)"
       inkscape:export-filename="G:\Users\suitedoalex\sites\fgv-logo-4.png"
       inkscape:export-xdpi="18.040817"
       inkscape:export-ydpi="18.040817">
      <path
         d="M 0,0 15.778,-17.884 H 29.583 L 13.806,0 Z"
         style="fill:#003e7e;fill-opacity:1;fill-rule:nonzero;stroke:none"
         id="path11254"
         inkscape:connector-curvature="0" />
    </g>
    <g
       id="g11256"
       transform="matrix(5.4552923,0,0,-5.4552923,251.50579,-43.7505)"
       inkscape:export-filename="G:\Users\suitedoalex\sites\fgv-logo-4.png"
       inkscape:export-xdpi="18.040817"
       inkscape:export-ydpi="18.040817">
      <path
         d="M 0,0 11.796,10.648 H -2.008 L -8.3,4.971 Z"
         style="fill:#008fd0;fill-opacity:1;fill-rule:nonzero;stroke:none"
         id="path11258"
         inkscape:connector-curvature="0" />
    </g>
  </g>
</svg>
